<svg xmlns="http://www.w3.org/2000/svg" viewBox="0 0 290 254" fill="none" role="img" aria-label="Katha stacked logo">
  <!-- Logomark (The Threshold) scaled to 120x120 and translated to center x=85 -->
  <g transform="translate(85, 0) scale(1.2)" stroke="#241E1A" stroke-width="6" stroke-linecap="square" stroke-linejoin="miter" fill="none">
    <path d="M 18 88 L 18 18 L 78 18 L 90 18 L 78 18 L 78 68" />
  </g>
  <!-- Wordmark translated down by 174 (120 height + 54 gap) -->
  <g transform="translate(0, 174)" stroke="#241E1A" stroke-width="7" stroke-linecap="square" stroke-linejoin="miter" fill="none">
    <path d="M 22 16 L 22 64" />
    <path d="M 22 44 L 52 16" />
    <path d="M 22 44 L 52 64" />
    <path d="M 96 32 C 96 20, 78 20, 78 32 L 78 56 C 78 68, 96 68, 96 56 L 96 32" />
    <path d="M 96 32 L 96 66" />
    <path d="M 130 8 L 130 60 C 130 66, 138 66, 144 64" />
    <path d="M 121 28 L 148 28" stroke-width="11" />
    <path d="M 178 8 L 178 64" />
    <path d="M 178 36 C 178 26, 196 24, 206 30 C 214 36, 214 46, 214 64" />
    <path d="M 264 32 C 264 20, 246 20, 246 32 L 246 56 C 246 68, 264 68, 264 56 L 264 32" />
    <path d="M 264 32 L 264 64" />
  </g>
</svg>
