<svg xmlns="http://www.w3.org/2000/svg" viewBox="0 0 290 80" fill="none" role="img" aria-label="Katha wordmark">
  <g stroke="#EAE2D5" stroke-width="7" stroke-linecap="square" stroke-linejoin="miter" fill="none">
    <!-- k -->
    <path d="M 22 16 L 22 64" />
    <path d="M 22 44 L 52 16" />
    <path d="M 22 44 L 52 64" />
    <!-- a1 -->
    <path d="M 96 32 C 96 20, 78 20, 78 32 L 78 56 C 78 68, 96 68, 96 56 L 96 32" />
    <path d="M 96 32 L 96 66" />
    <!-- t -->
    <path d="M 130 8 L 130 60 C 130 66, 138 66, 144 64" />
    <path d="M 121 28 L 148 28" stroke-width="11" />
    <!-- h -->
    <path d="M 178 8 L 178 64" />
    <path d="M 178 36 C 178 26, 196 24, 206 30 C 214 36, 214 46, 214 64" />
    <!-- a2 -->
    <path d="M 264 32 C 264 20, 246 20, 246 32 L 246 56 C 246 68, 264 68, 264 56 L 264 32" />
    <path d="M 264 32 L 264 64" />
  </g>
</svg>
