<svg xmlns="http://www.w3.org/2000/svg" viewBox="0 0 480 160" fill="none" role="img" aria-label="KTHA maker's mark with Barong calado embroidery — Loko Rust">
  <defs>
    <pattern id="calado-ladder-rust" x="0" y="0" width="8" height="12" patternUnits="userSpaceOnUse">
      <line x1="1" y1="2" x2="7" y2="2" stroke="#8C382A" stroke-width="0.5" opacity="0.5"/>
      <line x1="1" y1="6" x2="7" y2="6" stroke="#8C382A" stroke-width="0.5" opacity="0.5"/>
      <line x1="1" y1="10" x2="7" y2="10" stroke="#8C382A" stroke-width="0.5" opacity="0.5"/>
      <line x1="1" y1="0" x2="1" y2="12" stroke="#8C382A" stroke-width="0.3" opacity="0.35"/>
      <line x1="7" y1="0" x2="7" y2="12" stroke="#8C382A" stroke-width="0.3" opacity="0.35"/>
      <circle cx="1" cy="2" r="0.5" fill="#8C382A" opacity="0.3"/>
      <circle cx="7" cy="6" r="0.5" fill="#8C382A" opacity="0.3"/>
      <circle cx="1" cy="10" r="0.5" fill="#8C382A" opacity="0.3"/>
    </pattern>
  </defs>

  <!-- Pin-tuck lines -->
  <line x1="16" y1="12" x2="16" y2="148" stroke="#8C382A" stroke-width="0.6" opacity="0.35"/>
  <line x1="20" y1="12" x2="20" y2="148" stroke="#8C382A" stroke-width="0.6" opacity="0.35"/>
  <line x1="460" y1="12" x2="460" y2="148" stroke="#8C382A" stroke-width="0.6" opacity="0.35"/>
  <line x1="464" y1="12" x2="464" y2="148" stroke="#8C382A" stroke-width="0.6" opacity="0.35"/>
  
  <!-- Left calado ladder strip -->
  <rect x="26" y="20" width="10" height="120" fill="url(#calado-ladder-rust)" rx="1"/>
  
  <!-- Right calado ladder strip -->
  <rect x="444" y="20" width="10" height="120" fill="url(#calado-ladder-rust)" rx="1"/>

  <!-- Top sampaguita vine -->
  <g stroke="#8C382A" fill="none" opacity="0.5" stroke-width="0.8" stroke-linecap="round">
    <path d="M 80,22 C 120,18 140,26 180,20 C 220,14 260,28 300,22 C 340,16 360,26 400,20"/>
    <circle cx="110" cy="18" r="3" fill="#8C382A" opacity="0.18"/>
    <path d="M 110,14 L 110,11 M 107,15 L 104,13 M 113,15 L 116,13 M 108,20 L 105,22 M 112,20 L 115,22"/>
    <circle cx="190" cy="22" r="3" fill="#8C382A" opacity="0.18"/>
    <path d="M 190,18 L 190,15 M 187,19 L 184,17 M 193,19 L 196,17 M 188,25 L 185,27 M 192,25 L 195,27"/>
    <circle cx="280" cy="18" r="3" fill="#8C382A" opacity="0.18"/>
    <path d="M 280,14 L 280,11 M 277,15 L 274,13 M 283,15 L 286,13 M 278,21 L 275,23 M 282,21 L 285,23"/>
    <circle cx="370" cy="22" r="3" fill="#8C382A" opacity="0.18"/>
    <path d="M 370,18 L 370,15 M 367,19 L 364,17 M 373,19 L 376,17 M 368,25 L 365,27 M 372,25 L 375,27"/>
    <path d="M 95,20 C 92,16 88,18 90,22" fill="#8C382A" opacity="0.1"/>
    <path d="M 145,24 C 142,20 138,22 140,26" fill="#8C382A" opacity="0.1"/>
    <path d="M 230,18 C 227,14 223,16 225,20" fill="#8C382A" opacity="0.1"/>
    <path d="M 320,24 C 317,20 313,22 315,26" fill="#8C382A" opacity="0.1"/>
    <circle cx="130" cy="22" r="1.2" fill="#8C382A" opacity="0.2"/>
    <circle cx="340" cy="20" r="1.2" fill="#8C382A" opacity="0.2"/>
  </g>

  <!-- Bottom sampaguita vine -->
  <g stroke="#8C382A" fill="none" opacity="0.5" stroke-width="0.8" stroke-linecap="round">
    <path d="M 80,138 C 120,142 140,134 180,140 C 220,146 260,132 300,138 C 340,144 360,134 400,140"/>
    <circle cx="120" cy="142" r="3" fill="#8C382A" opacity="0.18"/>
    <path d="M 120,146 L 120,149 M 117,145 L 114,147 M 123,145 L 126,147 M 118,139 L 115,137 M 122,139 L 125,137"/>
    <circle cx="240" cy="136" r="3" fill="#8C382A" opacity="0.18"/>
    <path d="M 240,140 L 240,143 M 237,139 L 234,141 M 243,139 L 246,141 M 238,133 L 235,131 M 242,133 L 245,131"/>
    <circle cx="360" cy="142" r="3" fill="#8C382A" opacity="0.18"/>
    <path d="M 360,146 L 360,149 M 357,145 L 354,147 M 363,145 L 366,147 M 358,139 L 355,137 M 362,139 L 365,137"/>
    <path d="M 160,136 C 157,140 153,138 155,134" fill="#8C382A" opacity="0.1"/>
    <path d="M 300,140 C 297,144 293,142 295,138" fill="#8C382A" opacity="0.1"/>
    <circle cx="200" cy="142" r="1.2" fill="#8C382A" opacity="0.2"/>
  </g>

  <!-- KTHA letterforms -->
  <g fill="#8C382A">
    <rect x="60" y="48" width="6" height="64"/>
    <polygon points="66,80 66,72 96,48 104,48 104,56"/>
    <polygon points="66,80 66,88 96,112 104,112 104,104"/>
    <rect x="140" y="48" width="44" height="6"/>
    <rect x="159" y="48" width="6" height="64"/>
    <rect x="216" y="48" width="6" height="64"/>
    <rect x="216" y="76" width="40" height="6"/>
    <rect x="250" y="48" width="6" height="64"/>
    <polygon points="306,112 288,112 318,48 330,48"/>
    <polygon points="354,112 372,112 342,48 330,48"/>
    <rect x="300" y="86" width="60" height="6"/>
  </g>

  <!-- Inter-letter calado dots -->
  <g fill="#8C382A" opacity="0.25">
    <circle cx="122" cy="76" r="1"/>
    <circle cx="122" cy="84" r="1"/>
    <circle cx="122" cy="68" r="1"/>
    <circle cx="198" cy="76" r="1"/>
    <circle cx="198" cy="84" r="1"/>
    <circle cx="198" cy="68" r="1"/>
    <circle cx="276" cy="76" r="1"/>
    <circle cx="276" cy="84" r="1"/>
    <circle cx="276" cy="68" r="1"/>
  </g>
  
  <!-- Cascading embroidery drops beneath T crossbar -->
  <g stroke="#8C382A" fill="none" opacity="0.3" stroke-width="0.6" stroke-linecap="round">
    <path d="M 148,54 L 148,60 C 148,63 146,65 148,68"/>
    <circle cx="148" cy="70" r="1" fill="#8C382A" opacity="0.2"/>
    <path d="M 176,54 L 176,62 C 176,65 178,67 176,70"/>
    <circle cx="176" cy="72" r="1" fill="#8C382A" opacity="0.2"/>
  </g>
</svg>
